<svg width="100" height="100" viewBox="0 0 100 100" fill="none" xmlns="http://www.w3.org/2000/svg">
<path d="M49.9999 54.1673C51.105 54.1673 52.1648 54.6063 52.9462 55.3877C53.7276 56.1691 54.1666 57.2289 54.1666 58.334V63.6173L58.7416 60.9756C59.2157 60.6977 59.74 60.5163 60.2844 60.4419C60.8289 60.3675 61.3826 60.4015 61.9139 60.5419C62.4451 60.6824 62.9434 60.9265 63.3799 61.2603C63.8164 61.5941 64.1825 62.0109 64.4573 62.4868C64.7321 62.9627 64.91 63.4882 64.9808 64.0331C65.0516 64.578 65.014 65.1316 64.87 65.6619C64.726 66.1922 64.4786 66.6888 64.1419 67.123C63.8052 67.5573 63.386 67.9207 62.9083 68.1923L58.3333 70.834L62.9083 73.4757C63.386 73.7472 63.8052 74.1106 64.1419 74.5449C64.4786 74.9792 64.726 75.4758 64.87 76.0061C65.014 76.5364 65.0516 77.0899 64.9808 77.6349C64.91 78.1798 64.7321 78.7053 64.4573 79.1812C64.1825 79.6571 63.8164 80.0739 63.3799 80.4077C62.9434 80.7415 62.4451 80.9856 61.9139 81.1261C61.3826 81.2665 60.8289 81.3005 60.2844 81.2261C59.74 81.1516 59.2157 80.9702 58.7416 80.6923L54.1666 78.0506V83.334C54.1666 84.4391 53.7276 85.4989 52.9462 86.2803C52.1648 87.0617 51.105 87.5006 49.9999 87.5006C48.8949 87.5006 47.8351 87.0617 47.0537 86.2803C46.2723 85.4989 45.8333 84.4391 45.8333 83.334V78.0506L41.2583 80.6923C40.7842 80.9702 40.2599 81.1516 39.7155 81.2261C39.171 81.3005 38.6173 81.2665 38.086 81.1261C37.5548 80.9856 37.0565 80.7415 36.62 80.4077C36.1835 80.0739 35.8174 79.6571 35.5426 79.1812C35.2678 78.7053 35.0899 78.1798 35.0191 77.6349C34.9483 77.0899 34.9859 76.5364 35.1299 76.0061C35.2739 75.4758 35.5213 74.9792 35.858 74.5449C36.1947 74.1106 36.6139 73.7472 37.0916 73.4757L41.6666 70.834L37.0916 68.1923C36.6139 67.9207 36.1947 67.5573 35.858 67.123C35.5213 66.6888 35.2739 66.1922 35.1299 65.6619C34.9859 65.1316 34.9483 64.578 35.0191 64.0331C35.0899 63.4882 35.2678 62.9627 35.5426 62.4868C35.8174 62.0109 36.1835 61.5941 36.62 61.2603C37.0565 60.9265 37.5548 60.6824 38.086 60.5419C38.6173 60.4015 39.171 60.3675 39.7155 60.4419C40.2599 60.5163 40.7842 60.6977 41.2583 60.9756L45.8333 63.6173V58.334C45.8333 57.2289 46.2723 56.1691 47.0537 55.3877C47.8351 54.6063 48.8949 54.1673 49.9999 54.1673ZM47.9166 8.33399C53.4269 8.33229 58.8066 10.0114 63.3376 13.1472C67.8686 16.2831 71.3353 20.7264 73.2749 25.884C78.5843 27.3406 83.2646 30.5085 86.5899 34.8964C89.9151 39.2842 91.6996 44.6467 91.6663 50.1521C91.6331 55.6576 89.7841 60.9982 86.406 65.3455C83.028 69.6929 78.3098 72.8041 72.9833 74.1965C72.7042 73.0169 72.2551 71.8842 71.6499 70.834C72.7484 68.934 73.327 66.7782 73.3277 64.5835C73.3283 62.3888 72.7509 60.2327 71.6536 58.332C70.5563 56.4314 68.9778 54.8532 67.0768 53.7564C65.1759 52.6596 63.0196 52.0828 60.8249 52.084C59.7286 50.1828 58.151 48.6039 56.2507 47.5061C54.3504 46.4083 52.1945 45.8304 49.9999 45.8304C47.8054 45.8304 45.6495 46.4083 43.7492 47.5061C41.8489 48.6039 40.2712 50.1828 39.1749 52.084C36.9799 52.082 34.8231 52.6583 32.9216 53.7549C31.0201 54.8514 29.4409 56.4294 28.3431 58.3302C27.2453 60.231 26.6676 62.3874 26.668 64.5825C26.6685 66.7775 27.2472 68.9337 28.3458 70.834C27.6242 72.0858 27.1252 73.4533 26.8708 74.8756C22.307 74.3721 18.0375 72.375 14.7257 69.1948C11.414 66.0146 9.24554 61.8294 8.55752 57.2898C7.8695 52.7502 8.70041 48.1105 10.9211 44.0918C13.1418 40.0731 16.6279 36.9006 20.8374 35.0673C20.9295 27.9459 23.8229 21.1474 28.8912 16.1438C33.9594 11.1403 40.7946 8.33449 47.9166 8.33399Z" fill="white"/>
</svg>
