<svg width="100" height="100" viewBox="0 0 100 100" fill="none" xmlns="http://www.w3.org/2000/svg">
<path d="M76.4584 82.3952L70.625 76.4577C69.8612 75.6244 69.4792 74.6355 69.4792 73.491C69.4792 72.3466 69.8612 71.391 70.625 70.6244C71.3889 69.8577 72.3445 69.4757 73.4917 69.4785C74.6389 69.4813 75.6278 69.8633 76.4584 70.6244L82.3959 76.4577C83.2292 77.291 83.6459 78.2813 83.6459 79.4285C83.6459 80.5757 83.2292 81.5646 82.3959 82.3952C81.5625 83.2257 80.5736 83.6424 79.4292 83.6452C78.2848 83.648 77.2945 83.2313 76.4584 82.3952ZM25 83.3327C20.4167 83.3327 16.4931 81.7008 13.2292 78.4369C9.96532 75.173 8.33337 71.2494 8.33337 66.666C8.33337 62.0827 9.96532 58.1591 13.2292 54.8952C16.4931 51.6313 20.4167 49.9994 25 49.9994C28.3334 49.9994 31.407 50.9021 34.2209 52.7077C37.0348 54.5133 39.0653 56.9785 40.3125 60.1035L41.3542 62.4994H43.8542C46.7709 62.4994 49.2195 63.5063 51.2 65.5202C53.1806 67.5341 54.1695 69.9994 54.1667 72.916C54.1639 75.8327 53.157 78.298 51.1459 80.3119C49.1348 82.3257 46.6695 83.3327 43.75 83.3327H25ZM62.3959 71.666C62.1181 67.291 60.5389 63.5063 57.6584 60.3119C54.7778 57.1174 51.1487 55.1383 46.7709 54.3744C44.6181 50.6244 41.7195 47.6563 38.075 45.4702C34.4306 43.2841 30.4195 42.016 26.0417 41.666C27.8473 36.5966 30.9375 32.5521 35.3125 29.5327C39.6875 26.5133 44.5834 25.0021 50 24.9994C56.9445 24.9994 62.8473 27.4299 67.7084 32.291C72.5695 37.1521 75 43.0549 75 49.9994C75 54.5133 73.8889 58.698 71.6667 62.5535C69.4445 66.4091 66.3542 69.4466 62.3959 71.666ZM83.3334 54.166C82.1528 54.166 81.1639 53.766 80.3667 52.966C79.5695 52.166 79.1695 51.1771 79.1667 49.9994C79.1639 48.8216 79.5639 47.8327 80.3667 47.0327C81.1695 46.2327 82.1584 45.8327 83.3334 45.8327H91.6667C92.8473 45.8327 93.8375 46.2327 94.6375 47.0327C95.4375 47.8327 95.8361 48.8216 95.8334 49.9994C95.8306 51.1771 95.4306 52.1674 94.6334 52.9702C93.8361 53.773 92.8473 54.1716 91.6667 54.166H83.3334ZM23.5417 29.3744L17.6042 23.4369C16.8403 22.673 16.4584 21.7008 16.4584 20.5202C16.4584 19.3396 16.8403 18.3674 17.6042 17.6035C18.4375 16.7702 19.4278 16.3535 20.575 16.3535C21.7223 16.3535 22.7112 16.7702 23.5417 17.6035L29.375 23.541C30.1389 24.3744 30.5209 25.3646 30.5209 26.5119C30.5209 27.6591 30.1389 28.6133 29.375 29.3744C28.6112 30.1355 27.6389 30.5174 26.4584 30.5202C25.2778 30.523 24.3056 30.141 23.5417 29.3744ZM70.625 29.3744C69.8612 28.6105 69.4792 27.6563 69.4792 26.5119C69.4792 25.3674 69.8612 24.3771 70.625 23.541L76.4584 17.6035C77.2917 16.7702 78.282 16.3535 79.4292 16.3535C80.5764 16.3535 81.5653 16.7702 82.3959 17.6035C83.1598 18.3674 83.5417 19.3396 83.5417 20.5202C83.5417 21.7008 83.1598 22.673 82.3959 23.4369L76.4584 29.3744C75.6945 30.1383 74.7223 30.5202 73.5417 30.5202C72.3611 30.5202 71.3889 30.1383 70.625 29.3744ZM50 20.8327C48.8195 20.8327 47.8306 20.4327 47.0334 19.6327C46.2362 18.8327 45.8362 17.8438 45.8334 16.666V8.3327C45.8334 7.15214 46.2334 6.16325 47.0334 5.36603C47.8334 4.56881 48.8223 4.16881 50 4.16603C51.1778 4.16325 52.1681 4.56325 52.9709 5.36603C53.7737 6.16881 54.1723 7.1577 54.1667 8.3327V16.666C54.1667 17.8466 53.7667 18.8369 52.9667 19.6369C52.1667 20.4369 51.1778 20.8355 50 20.8327Z" fill="white"/>
</svg>
