<svg width="100" height="100" viewBox="0 0 100 100" fill="none" xmlns="http://www.w3.org/2000/svg">
<path d="M55 30.0005C67.32 30.0005 74.315 37.8655 75.33 47.3705H75.64C83.57 47.3705 90 53.5555 90 61.1855C90 68.8155 83.57 75.0005 75.64 75.0005H72.17L72.085 75.2055L64.65 88.7255C64.352 89.2747 63.8591 89.6924 63.2684 89.8963C62.6778 90.1002 62.0322 90.0755 61.4588 89.827C60.8855 89.5786 60.426 89.1245 60.1707 88.5542C59.9155 87.9838 59.8832 87.3386 60.08 86.7455L60.26 86.3355L66.5 75.0005H57.23L57.14 75.2055L49.705 88.7255C49.407 89.2747 48.9141 89.6924 48.3234 89.8963C47.7328 90.1002 47.0872 90.0755 46.5138 89.827C45.9405 89.5786 45.481 89.1245 45.2257 88.5542C44.9705 87.9838 44.9382 87.3386 45.135 86.7455L45.315 86.3355L51.56 75.0005H42.2L34.72 88.7255C34.422 89.2747 33.9291 89.6924 33.3384 89.8963C32.7478 90.1002 32.1022 90.0755 31.5288 89.827C30.9555 89.5786 30.496 89.1245 30.2407 88.5542C29.9855 87.9838 29.9532 87.3386 30.15 86.7455L30.33 86.3355L36.51 75.0005H34.36C26.43 75.0005 20 68.8155 20 61.1855C20 53.5555 26.43 47.3705 34.36 47.3705H34.67C35.69 37.8005 42.675 30.0005 55 30.0005ZM19.015 43.5005C19.2072 44.0549 19.1983 44.6592 18.9899 45.2076C18.7815 45.7561 18.3869 46.2137 17.875 46.5005L17.465 46.6805L13.46 48.0605C12.869 48.2674 12.2218 48.2449 11.6466 47.9975C11.0714 47.7501 10.6099 47.2958 10.3535 46.7246C10.0971 46.1533 10.0644 45.5066 10.2619 44.9124C10.4594 44.3181 10.8727 43.8197 11.42 43.5155L11.83 43.3355L15.84 41.9555C16.4666 41.7405 17.1529 41.783 17.7482 42.0736C18.3435 42.3642 18.7991 42.8792 19.015 43.5055M44.6 22.5005C46.26 23.3105 47.725 24.3655 48.965 25.6005C40.155 27.4205 33.815 33.2655 31.25 41.3805L30.925 42.5005L30.695 43.4355L29.865 43.5855C27.6482 44.0464 25.5315 44.8998 23.615 46.1055C21.6824 43.0951 20.7871 39.5353 21.0656 35.9688C21.3442 32.4023 22.7812 29.0247 25.1578 26.3508C27.5343 23.6769 30.72 21.8534 34.2292 21.1583C37.7384 20.4632 41.3786 20.9345 44.595 22.5005M14.58 23.3505L15 23.5105L18.81 25.3655C19.3717 25.6386 19.8108 26.112 20.041 26.6925C20.2712 27.2731 20.2757 27.9187 20.0538 28.5025C19.8318 29.0862 19.3994 29.5657 18.8417 29.8467C18.2839 30.1276 17.6412 30.1897 17.04 30.0205L16.615 29.8605L12.81 28.0055C12.2483 27.7325 11.8092 27.2591 11.579 26.6786C11.3488 26.098 11.3443 25.4523 11.5662 24.8686C11.7882 24.2849 12.2206 23.8053 12.7784 23.5244C13.3361 23.2434 13.9788 23.1814 14.58 23.3505ZM49.945 11.4755C50.4714 11.7324 50.891 12.1659 51.1304 12.7005C51.3698 13.2351 51.4139 13.8368 51.255 14.4005L51.095 14.8205L49.24 18.6305C48.967 19.1922 48.4936 19.6313 47.913 19.8615C47.3325 20.0917 46.6868 20.0963 46.1031 19.8743C45.5193 19.6524 45.0398 19.2199 44.7588 18.6622C44.4779 18.1044 44.4159 17.4617 44.585 16.8605L44.745 16.4355L46.6 12.6255C46.744 12.3297 46.945 12.0651 47.1915 11.8471C47.4379 11.629 47.725 11.4618 48.0362 11.355C48.3475 11.2481 48.6767 11.2038 49.0051 11.2245C49.3336 11.2452 49.6496 11.3305 49.945 11.4755ZM31 11.3155L31.185 11.7255L32.565 15.7355C32.7679 16.3258 32.7426 16.9706 32.4941 17.5432C32.2457 18.1158 31.792 18.5747 31.2224 18.8298C30.6527 19.0849 30.0082 19.1176 29.4156 18.9216C28.823 18.7256 28.3252 18.315 28.02 17.7705L27.835 17.3605L26.46 13.3555C26.2603 12.7667 26.2873 12.1245 26.5356 11.5544C26.7839 10.9843 27.2358 10.5272 27.8029 10.2724C28.3701 10.0175 29.0119 9.98317 29.6031 10.1761C30.1942 10.3689 30.6923 10.7752 31 11.3155Z" fill="white"/>
</svg>
