<svg width="100" height="100" viewBox="0 0 100 100" fill="none" xmlns="http://www.w3.org/2000/svg">
<path d="M79.2656 26.7383C77.9594 20.5483 74.7006 14.9412 69.9687 10.7422C66.4593 7.60266 62.2576 5.33693 57.7062 4.12968C53.1548 2.92243 48.3826 2.80784 43.7785 3.79527C39.1744 4.78269 34.8688 6.84416 31.2127 9.81163C27.5567 12.7791 24.6536 16.5686 22.7402 20.8711C11.8164 21.5156 3.125 30.5957 3.125 41.666C3.125 53.1543 12.4824 62.5 23.9844 62.5H38.1074L34.375 81.25H43.75V96.875L65.625 68.75H57.127L58.6895 62.5H78.9707C83.6755 62.4811 88.1833 60.6089 91.5171 57.2891C94.851 53.9693 96.7422 49.4695 96.781 44.7648C96.8198 40.0601 95.003 35.5297 91.7244 32.1554C88.4458 28.7811 83.9695 26.8348 79.2656 26.7383Z" fill="white"/>
<path d="M14.5566 79.526L22.0406 64.5605L27.6305 67.3563L20.1463 82.3215L14.5566 79.526ZM19.2422 92.0285L25.1637 80.1881L30.7535 82.9838L24.8322 94.8238L19.2422 92.0285ZM69.2463 79.5283L76.7307 64.5631L82.3205 67.3586L74.8361 82.3238L69.2463 79.5283ZM73.934 92.0305L79.8553 80.1902L85.4451 82.9857L79.5238 94.826L73.934 92.0305Z" fill="white"/>
</svg>
