<svg width="100" height="100" viewBox="0 0 100 100" fill="none" xmlns="http://www.w3.org/2000/svg">
<path d="M27.0833 83.3327C20.7638 83.3327 15.3652 81.1452 10.8875 76.7702C6.40968 72.3952 4.1694 67.048 4.16663 60.7285C4.16663 55.3118 5.79857 50.4855 9.06246 46.2493C12.3263 42.0132 16.5972 39.3049 21.875 38.1243C23.6111 31.7355 27.0833 26.5618 32.2916 22.6035C37.5 18.6452 43.4027 16.666 50 16.666C58.125 16.666 65.018 19.4966 70.6791 25.1577C76.3402 30.8188 79.1694 37.7105 79.1666 45.8327C83.9583 46.3882 87.9347 48.4549 91.0958 52.0327C94.2569 55.6105 95.8361 59.7938 95.8333 64.5827C95.8333 69.791 94.0111 74.2188 90.3666 77.866C86.7222 81.5132 82.2944 83.3355 77.0833 83.3327H27.0833Z" fill="white"/>
</svg>
