<svg width="100" height="100" viewBox="0 0 100 100" fill="none" xmlns="http://www.w3.org/2000/svg">
<path d="M45.5166 65.8006C45.6583 65.2721 45.9027 64.7766 46.2359 64.3425C46.5691 63.9084 46.9846 63.5442 47.4585 63.2706C47.9325 62.9971 48.4557 62.8196 48.9983 62.7482C49.5409 62.6769 50.0922 62.7131 50.6207 62.8548C51.1493 62.9965 51.6448 63.241 52.0789 63.5742C52.513 63.9074 52.8772 64.3228 53.1508 64.7968C53.4243 65.2708 53.6018 65.794 53.6732 66.3365C53.7445 66.8791 53.7083 67.4304 53.5666 67.959L52.4874 71.984C52.2012 73.0515 51.5026 73.9616 50.5454 74.514C49.5882 75.0665 48.4507 75.216 47.3832 74.9298C46.3157 74.6436 45.4057 73.945 44.8532 72.9878C44.3008 72.0306 44.1512 70.8931 44.4374 69.8256L45.5166 65.8006ZM47.9166 8.33399C53.4269 8.33229 58.8066 10.0114 63.3376 13.1472C67.8686 16.2831 71.3353 20.7264 73.2749 25.884C79.1053 27.4919 84.1555 31.1582 87.4901 36.204C90.8247 41.2497 92.2178 47.333 91.4113 53.327C90.6049 59.3211 87.6535 64.8198 83.1039 68.8048C78.5543 72.7897 72.7146 74.9909 66.6666 75.0006H60.2749C60.3693 74.7201 60.4568 74.4326 60.5374 74.1381L61.6166 70.1173C62.4746 66.9148 62.0254 63.5026 60.3677 60.6314C59.5468 59.2097 58.454 57.9636 57.1516 56.9642C55.8492 55.9648 54.3627 55.2318 52.777 54.8069C49.5745 53.9488 46.1623 54.3981 43.291 56.0558C40.4198 57.7135 38.3246 60.444 37.4666 63.6465L36.3874 67.6715C35.8202 69.7897 35.8202 72.0199 36.3874 74.1381C36.1116 74.4132 35.8488 74.701 35.5999 75.0006H29.1666C24.3779 75.0038 19.7343 73.3571 16.0174 70.3378C12.3005 67.3185 9.73717 63.1109 8.75893 58.4232C7.7807 53.7355 8.44724 48.8538 10.6464 44.6C12.8455 40.3461 16.4429 36.9797 20.8332 35.0673C20.9253 27.9452 23.8193 21.146 28.8884 16.1424C33.9576 11.1387 40.7938 8.33339 47.9166 8.33399ZM49.2499 84.059C49.4086 83.5254 49.4587 82.9655 49.3974 82.4123C49.3361 81.859 49.1646 81.3236 48.8929 80.8378C48.6213 80.3519 48.255 79.9254 47.8158 79.5835C47.3766 79.2415 46.8733 78.991 46.3357 78.8468C45.798 78.7026 45.237 78.6675 44.6856 78.7438C44.1342 78.82 43.6036 79.0059 43.1253 79.2906C42.6469 79.5752 42.2305 79.9529 41.9005 80.4012C41.5705 80.8495 41.3337 81.3593 41.2041 81.9006L40.1249 85.9256C39.8387 86.9931 39.9883 88.1306 40.5407 89.0878C41.0932 90.045 42.0032 90.7436 43.0707 91.0298C44.1382 91.316 45.2757 91.1665 46.2329 90.614C47.1901 90.0616 47.8887 89.1515 48.1749 88.084L49.2499 84.059Z" fill="white"/>
</svg>
