<svg width="100" height="100" viewBox="0 0 100 100" fill="none" xmlns="http://www.w3.org/2000/svg">
<path d="M28.1749 31.8631C28.1749 18.8673 38.8333 8.33398 51.9832 8.33398C64.2332 8.33398 74.3207 17.4756 75.6499 29.2298C84.9666 32.4173 91.6666 41.1715 91.6666 51.4715C91.6724 55.7277 90.5077 59.9035 88.2999 63.5423H91.6666C92.4954 63.5423 93.2902 63.8716 93.8763 64.4576C94.4623 65.0437 94.7916 65.8385 94.7916 66.6673C94.7916 67.4961 94.4623 68.291 93.8763 68.877C93.2902 69.4631 92.4954 69.7923 91.6666 69.7923H8.33325C7.50445 69.7923 6.70959 69.4631 6.12354 68.877C5.53749 68.291 5.20825 67.4961 5.20825 66.6673C5.20825 65.8385 5.53749 65.0437 6.12354 64.4576C6.70959 63.8716 7.50445 63.5423 8.33325 63.5423H9.46242C8.71543 61.5649 8.33287 59.4686 8.33325 57.3548C8.33325 47.6048 16.3291 39.7048 26.1916 39.7048C27.3777 39.7076 28.5305 39.8187 29.6499 40.0382C28.6732 37.4233 28.1737 34.6544 28.1749 31.8631ZM20.8333 76.0423C20.0044 76.0423 19.2096 76.3716 18.6235 76.9576C18.0375 77.5437 17.7083 78.3385 17.7083 79.1673C17.7083 79.9961 18.0375 80.791 18.6235 81.377C19.2096 81.9631 20.0044 82.2923 20.8333 82.2923H79.1666C79.9954 82.2923 80.7902 81.9631 81.3763 81.377C81.9623 80.791 82.2916 79.9961 82.2916 79.1673C82.2916 78.3385 81.9623 77.5437 81.3763 76.9576C80.7902 76.3716 79.9954 76.0423 79.1666 76.0423H20.8333ZM33.3333 88.5423C32.5044 88.5423 31.7096 88.8716 31.1235 89.4576C30.5375 90.0437 30.2083 90.8385 30.2083 91.6673C30.2083 92.4961 30.5375 93.291 31.1235 93.877C31.7096 94.4631 32.5044 94.7923 33.3333 94.7923H66.6666C67.4954 94.7923 68.2902 94.4631 68.8763 93.877C69.4623 93.291 69.7916 92.4961 69.7916 91.6673C69.7916 90.8385 69.4623 90.0437 68.8763 89.4576C68.2902 88.8716 67.4954 88.5423 66.6666 88.5423H33.3333Z" fill="white"/>
</svg>
