<svg width="100" height="100" viewBox="0 0 100 100" fill="none" xmlns="http://www.w3.org/2000/svg">
<path d="M33.3333 66.6673C34.4384 66.6673 35.4982 67.1063 36.2796 67.8877C37.061 68.6691 37.5 69.7289 37.5 70.834V71.9506L38.4666 71.3923C38.9407 71.1144 39.465 70.933 40.0095 70.8586C40.5539 70.7841 41.1077 70.8181 41.6389 70.9586C42.1702 71.099 42.6684 71.3432 43.1049 71.677C43.5414 72.0107 43.9076 72.4276 44.1823 72.9034C44.4571 73.3793 44.635 73.9049 44.7058 74.4498C44.7766 74.9947 44.739 75.5482 44.595 76.0785C44.451 76.6088 44.2036 77.1054 43.8669 77.5397C43.5303 77.974 43.111 78.3374 42.6333 78.609L41.6666 79.1673L42.6333 79.7257C43.5825 80.2821 44.2731 81.1914 44.5543 82.2552C44.8355 83.3189 44.6846 84.4507 44.1345 85.4035C43.5843 86.3564 42.6796 87.053 41.6177 87.3413C40.5559 87.6295 39.4231 87.4861 38.4666 86.9423L37.5 86.384V87.5006C37.5 88.6057 37.061 89.6655 36.2796 90.4469C35.4982 91.2283 34.4384 91.6673 33.3333 91.6673C32.2282 91.6673 31.1684 91.2283 30.387 90.4469C29.6056 89.6655 29.1666 88.6057 29.1666 87.5006V86.384L28.2 86.9423C27.7259 87.2202 27.2016 87.4016 26.6572 87.4761C26.1127 87.5505 25.5589 87.5165 25.0277 87.3761C24.4965 87.2356 23.9982 86.9915 23.5617 86.6577C23.1252 86.3239 22.7591 85.9071 22.4843 85.4312C22.2095 84.9553 22.0316 84.4298 21.9608 83.8849C21.89 83.3399 21.9276 82.7864 22.0716 82.2561C22.2156 81.7258 22.463 81.2292 22.7997 80.7949C23.1364 80.3606 23.5556 79.9972 24.0333 79.7257L25 79.1673L24.0333 78.609C23.5556 78.3374 23.1364 77.974 22.7997 77.5397C22.463 77.1054 22.2156 76.6088 22.0716 76.0785C21.9276 75.5482 21.89 74.9947 21.9608 74.4498C22.0316 73.9049 22.2095 73.3793 22.4843 72.9034C22.7591 72.4276 23.1252 72.0107 23.5617 71.677C23.9982 71.3432 24.4965 71.099 25.0277 70.9586C25.5589 70.8181 26.1127 70.7841 26.6572 70.8586C27.2016 70.933 27.7259 71.1144 28.2 71.3923L29.1666 71.9506V70.834C29.1666 69.7289 29.6056 68.6691 30.387 67.8877C31.1684 67.1063 32.2282 66.6673 33.3333 66.6673ZM66.6666 66.6673C67.7717 66.6673 68.8315 67.1063 69.6129 67.8877C70.3943 68.6691 70.8333 69.7289 70.8333 70.834V71.9506L71.8 71.3923C72.274 71.1144 72.7984 70.933 73.3428 70.8586C73.8872 70.7841 74.441 70.8181 74.9723 70.9586C75.5035 71.099 76.0017 71.3432 76.4382 71.677C76.8747 72.0107 77.2409 72.4276 77.5157 72.9034C77.7904 73.3793 77.9683 73.9049 78.0391 74.4498C78.11 74.9947 78.0723 75.5482 77.9283 76.0785C77.7844 76.6088 77.5369 77.1054 77.2002 77.5397C76.8636 77.974 76.4443 78.3374 75.9666 78.609L75 79.1673L75.9666 79.7257C76.9158 80.2821 77.6064 81.1914 77.8876 82.2552C78.1689 83.3189 78.0179 84.4507 77.4678 85.4035C76.9176 86.3564 76.0129 87.053 74.9511 87.3413C73.8892 87.6295 72.7565 87.4861 71.8 86.9423L70.8333 86.384V87.5006C70.8333 88.6057 70.3943 89.6655 69.6129 90.4469C68.8315 91.2283 67.7717 91.6673 66.6666 91.6673C65.5616 91.6673 64.5018 91.2283 63.7204 90.4469C62.939 89.6655 62.5 88.6057 62.5 87.5006V86.384L61.5333 86.9423C61.0593 87.2202 60.5349 87.4016 59.9905 87.4761C59.4461 87.5505 58.8923 87.5165 58.361 87.3761C57.8298 87.2356 57.3316 86.9915 56.8951 86.6577C56.4586 86.3239 56.0924 85.9071 55.8176 85.4312C55.5429 84.9553 55.365 84.4298 55.2941 83.8849C55.2233 83.3399 55.261 82.7864 55.4049 82.2561C55.5489 81.7258 55.7964 81.2292 56.133 80.7949C56.4697 80.3606 56.889 79.9972 57.3666 79.7257L58.3333 79.1673L57.3666 78.609C56.889 78.3374 56.4697 77.974 56.133 77.5397C55.7964 77.1054 55.5489 76.6088 55.4049 76.0785C55.261 75.5482 55.2233 74.9947 55.2941 74.4498C55.365 73.9049 55.5429 73.3793 55.8176 72.9034C56.0924 72.4276 56.4586 72.0107 56.8951 71.677C57.3316 71.3432 57.8298 71.099 58.361 70.9586C58.8923 70.8181 59.4461 70.7841 59.9905 70.8586C60.5349 70.933 61.0593 71.1144 61.5333 71.3923L62.5 71.9506V70.834C62.5 69.7289 62.939 68.6691 63.7204 67.8877C64.5018 67.1063 65.5616 66.6673 66.6666 66.6673ZM47.9166 8.33399C53.4269 8.33229 58.8067 10.0114 63.3377 13.1472C67.8687 16.2831 71.3354 20.7264 73.275 25.884C77.5177 27.0485 81.3781 29.3116 84.4666 32.445C87.555 35.5783 89.7622 39.471 90.8654 43.7301C91.9685 47.9891 91.9285 52.4639 90.7494 56.7025C89.5704 60.9412 87.2939 64.7938 84.15 67.8715C82.2727 65.1663 79.4038 63.3112 76.1666 62.709C74.4821 60.7387 72.2266 59.3408 69.7125 58.709C69.7591 57.1643 69.519 55.6244 69.0041 54.1673C69.6063 52.4649 69.8325 50.6521 69.667 48.8539C69.5016 47.0557 68.9485 45.3147 68.0458 43.7506C67.1431 42.1863 65.912 40.8362 64.4375 39.7932C62.9629 38.7502 61.2799 38.0391 59.5041 37.709C58.3301 36.3364 56.8725 35.2345 55.2318 34.4793C53.5911 33.724 51.8062 33.3333 50 33.334C46.1958 33.334 42.7916 35.0298 40.5 37.709C38.7243 38.0391 37.0412 38.7502 35.5666 39.7932C34.0921 40.8362 32.861 42.1863 31.9583 43.7506C31.0556 45.3147 30.5025 47.0557 30.3371 48.8539C30.1717 50.6521 30.3978 52.4649 31 54.1673C30.4837 55.6241 30.2422 57.1641 30.2875 58.709C27.7719 59.34 25.5148 60.7379 23.8291 62.709C22.0534 63.0391 20.3704 63.7502 18.8958 64.7932C17.4212 65.8362 16.1902 67.1863 15.2875 68.7506L14.9458 69.3923C12.421 67.0354 10.5219 64.0878 9.41915 60.8146C8.31645 57.5415 8.04482 54.0456 8.62872 50.6414C9.21261 47.2372 10.6337 44.0316 12.7641 41.313C14.8945 38.5944 17.6674 36.4481 20.8333 35.0673C20.9254 27.9452 23.8194 21.146 28.8885 16.1424C33.9577 11.1387 40.7939 8.33339 47.9166 8.33399ZM50 41.6673C51.105 41.6673 52.1649 42.1063 52.9463 42.8877C53.7277 43.6691 54.1666 44.7289 54.1666 45.834V46.9506L55.1333 46.3923C55.6074 46.1144 56.1317 45.933 56.6761 45.8586C57.2206 45.7841 57.7743 45.8181 58.3056 45.9586C58.8368 46.099 59.3351 46.3432 59.7716 46.677C60.2081 47.0107 60.5742 47.4276 60.849 47.9035C61.1237 48.3793 61.3017 48.9049 61.3725 49.4498C61.4433 49.9947 61.4057 50.5482 61.2617 51.0785C61.1177 51.6088 60.8703 52.1054 60.5336 52.5397C60.1969 52.974 59.7777 53.3374 59.3 53.609L58.3333 54.1673L59.3 54.7256C60.2492 55.2821 60.9397 56.1914 61.221 57.2552C61.5022 58.3189 61.3513 59.4507 60.8011 60.4035C60.251 61.3564 59.3463 62.053 58.2844 62.3413C57.2226 62.6296 56.0898 62.4861 55.1333 61.9423L54.1666 61.384V62.5006C54.1666 63.6057 53.7277 64.6655 52.9463 65.4469C52.1649 66.2283 51.105 66.6673 50 66.6673C48.8949 66.6673 47.8351 66.2283 47.0537 65.4469C46.2723 64.6655 45.8333 63.6057 45.8333 62.5006V61.384L44.8666 61.9423C44.3926 62.2202 43.8683 62.4016 43.3238 62.4761C42.7794 62.5505 42.2256 62.5165 41.6944 62.3761C41.1631 62.2356 40.6649 61.9915 40.2284 61.6577C39.7919 61.3239 39.4257 60.9071 39.151 60.4312C38.8762 59.9553 38.6983 59.4298 38.6275 58.8849C38.5566 58.3399 38.5943 57.7864 38.7383 57.2561C38.8822 56.7258 39.1297 56.2292 39.4664 55.7949C39.803 55.3606 40.2223 54.9972 40.7 54.7256L41.6666 54.1673L40.7 53.609C40.2223 53.3374 39.803 52.974 39.4664 52.5397C39.1297 52.1054 38.8822 51.6088 38.7383 51.0785C38.5943 50.5482 38.5566 49.9947 38.6275 49.4498C38.6983 48.9049 38.8762 48.3793 39.151 47.9035C39.4257 47.4276 39.7919 47.0107 40.2284 46.677C40.6649 46.3432 41.1631 46.099 41.6944 45.9586C42.2256 45.8181 42.7794 45.7841 43.3238 45.8586C43.8683 45.933 44.3926 46.1144 44.8666 46.3923L45.8333 46.9506V45.834C45.8333 44.7289 46.2723 43.6691 47.0537 42.8877C47.8351 42.1063 48.8949 41.6673 50 41.6673Z" fill="white"/>
</svg>
