<svg width="100" height="100" viewBox="0 0 100 100" fill="none" xmlns="http://www.w3.org/2000/svg">
<path d="M41.2041 81.9006C41.4904 80.8332 42.1889 79.9231 43.1461 79.3706C44.1033 78.8182 45.2408 78.6686 46.3083 78.9548C47.3758 79.241 48.2859 79.9396 48.8383 80.8968C49.3908 81.854 49.5404 82.9915 49.2541 84.059L48.175 88.084C47.8888 89.1515 47.1902 90.0616 46.233 90.614C45.2758 91.1665 44.1383 91.316 43.0708 91.0298C42.0033 90.7436 41.0932 90.045 40.5408 89.0878C39.9883 88.1306 39.8388 86.9931 40.125 85.9256L41.2041 81.9006ZM32.0583 74.1423C33.125 74.4285 34.0344 75.1263 34.5867 76.0826C35.1391 77.0389 35.2892 78.1754 35.0041 79.2423L33.925 83.2673C33.7856 83.7981 33.5427 84.2962 33.2103 84.7328C32.8778 85.1695 32.4624 85.5362 31.9879 85.8119C31.5133 86.0876 30.989 86.2668 30.445 86.3392C29.901 86.4117 29.348 86.3759 28.8179 86.234C28.2877 86.0922 27.7908 85.847 27.3557 85.5125C26.9206 85.1781 26.5558 84.7609 26.2823 84.2851C26.0089 83.8093 25.8321 83.2841 25.7622 82.7398C25.6923 82.1954 25.7306 81.6426 25.875 81.1131L26.9541 77.0881C27.0958 76.5595 27.3402 76.064 27.6734 75.6299C28.0066 75.1957 28.422 74.8315 28.896 74.5579C29.37 74.2844 29.8932 74.1069 30.4358 74.0356C30.9784 73.9643 31.5297 74.0005 32.0583 74.1423ZM62.6125 74.1423C63.6791 74.4285 64.5885 75.1263 65.1409 76.0826C65.6933 77.0389 65.8434 78.1754 65.5583 79.2423L64.4833 83.2673C64.3439 83.7981 64.101 84.2962 63.7686 84.7328C63.4362 85.1695 63.0208 85.5362 62.5462 85.8119C62.0717 86.0876 61.5473 86.2668 61.0033 86.3392C60.4593 86.4117 59.9063 86.3759 59.3762 86.234C58.846 86.0922 58.3491 85.847 57.914 85.5125C57.4789 85.1781 57.1141 84.7609 56.8407 84.2851C56.5672 83.8093 56.3905 83.2841 56.3206 82.7398C56.2507 82.1954 56.289 81.6426 56.4333 81.1131L57.5083 77.0881C57.65 76.5595 57.8944 76.064 58.2276 75.6299C58.5608 75.1957 58.9762 74.8315 59.4502 74.5579C59.9242 74.2844 60.4474 74.1069 60.99 74.0356C61.5326 73.9643 62.0839 74.0005 62.6125 74.1423ZM50.6208 62.8548C51.1494 62.9965 51.6449 63.2409 52.0791 63.5741C52.5132 63.9073 52.8775 64.3227 53.151 64.7967C53.4246 65.2707 53.6021 65.7939 53.6734 66.3365C53.7447 66.8791 53.7084 67.4304 53.5666 67.959L52.4875 71.984C52.3458 72.5125 52.1013 73.008 51.7681 73.4421C51.4349 73.8762 51.0195 74.2405 50.5455 74.514C50.0715 74.7876 49.5483 74.9651 49.0058 75.0364C48.4632 75.1078 47.9119 75.0715 47.3833 74.9298C46.8547 74.7881 46.3593 74.5437 45.9252 74.2104C45.4911 73.8772 45.1268 73.4618 44.8533 72.9878C44.5797 72.5139 44.4022 71.9907 44.3309 71.4481C44.2595 70.9055 44.2958 70.3542 44.4375 69.8256L45.5208 65.8006C45.807 64.734 46.5048 63.8246 47.4611 63.2722C48.4174 62.7199 49.5539 62.5697 50.6208 62.8548ZM47.9166 8.33399C53.4269 8.33229 58.8067 10.0114 63.3377 13.1472C67.8687 16.2831 71.3354 20.7264 73.275 25.884C78.4362 27.2995 83.0072 30.3333 86.3161 34.5396C89.625 38.7459 91.4973 43.9027 91.6577 49.2521C91.8181 54.6015 90.2582 59.8613 87.2073 64.2583C84.1564 68.6553 79.7754 71.9576 74.7083 73.6798C75.6968 72.3816 76.4215 70.9024 76.8416 69.3257L77.925 65.3006C78.7109 62.3826 78.4131 59.2787 77.0866 56.5633C75.7602 53.848 73.4949 51.7051 70.7102 50.5313C67.9255 49.3575 64.8098 49.2323 61.9398 50.1789C59.0699 51.1254 56.64 53.0797 55.1 55.6798C52.1489 54.2161 48.7393 53.9766 45.6125 55.0131C44.263 53.0382 42.3752 51.492 40.1732 50.5579C37.9712 49.6238 35.5474 49.3411 33.1896 49.7433C30.8317 50.1456 28.6388 51.2159 26.871 52.8273C25.1033 54.4386 23.835 56.5233 23.2166 58.834L22.1375 62.8548C21.5695 64.9744 21.5695 67.2061 22.1375 69.3257C21.1445 70.3191 20.3261 71.4727 19.7166 72.7382C16.196 70.9477 13.2568 68.1933 11.2419 64.7961C9.22695 61.3989 8.21926 57.4989 8.3363 53.5509C8.45334 49.6028 9.6903 45.7694 11.903 42.4975C14.1156 39.2257 17.2128 36.6502 20.8333 35.0715C20.9243 27.9486 23.8178 21.1484 28.8871 16.1439C33.9564 11.1393 40.7932 8.3334 47.9166 8.33399ZM36.3708 58.0423C36.8994 58.184 37.3949 58.4284 37.8291 58.7616C38.2632 59.0948 38.6275 59.5102 38.901 59.9842C39.1746 60.4582 39.3521 60.9814 39.4234 61.524C39.4947 62.0666 39.4584 62.6179 39.3166 63.1465L38.2375 67.1715C38.0958 67.7001 37.8513 68.1955 37.5181 68.6296C37.1849 69.0637 36.7695 69.428 36.2955 69.7015C35.8215 69.9751 35.2983 70.1526 34.7558 70.2239C34.2132 70.2953 33.6619 70.259 33.1333 70.1173C32.6047 69.9756 32.1093 69.7312 31.6752 69.398C31.2411 69.0647 30.8768 68.6493 30.6033 68.1753C30.3297 67.7014 30.1522 67.1782 30.0809 66.6356C30.0095 66.093 30.0458 65.5417 30.1875 65.0131L31.2708 60.9881C31.557 59.9215 32.2548 59.0121 33.2111 58.4597C34.1674 57.9074 35.3039 57.7572 36.3708 58.0423ZM66.9291 58.0423C67.4577 58.184 67.9533 58.4284 68.3874 58.7616C68.8215 59.0948 69.1858 59.5102 69.4593 59.9842C69.7329 60.4582 69.9104 60.9814 69.9817 61.524C70.053 62.0666 70.0168 62.6179 69.875 63.1465L68.7916 67.1715C68.662 67.7128 68.4252 68.2227 68.0952 68.671C67.7652 69.1193 67.3488 69.4969 66.8704 69.7815C66.3921 70.0662 65.8615 70.2522 65.3101 70.3284C64.7587 70.4046 64.1977 70.3696 63.66 70.2253C63.1224 70.0811 62.6191 69.8306 62.1799 69.4887C61.7407 69.1467 61.3744 68.7202 61.1028 68.2344C60.8311 67.7485 60.6596 67.2131 60.5983 66.6599C60.537 66.1066 60.5871 65.5467 60.7458 65.0131L61.825 60.9881C61.9666 60.4595 62.211 59.964 62.5442 59.5299C62.8774 59.0957 63.2929 58.7315 63.7669 58.4579C64.2408 58.1844 64.7641 58.0069 65.3067 57.9356C65.8492 57.8643 66.4006 57.9005 66.9291 58.0423Z" fill="white"/>
</svg>
