<svg width="100" height="100" viewBox="0 0 100 100" fill="none" xmlns="http://www.w3.org/2000/svg">
<path d="M31.2499 95.834L34.9999 85.4173H27.0833L32.2916 70.834H42.7083L38.2291 81.2507H46.8749L35.4166 95.834H31.2499ZM59.3749 91.6673L62.2916 83.334H54.1666L58.6457 70.834H69.0624L65.4166 79.1673H73.9582L63.5416 91.6673H59.3749ZM31.2499 66.6673C24.9305 66.6673 19.5319 64.4284 15.0541 59.9507C10.5763 55.4729 8.33603 50.0729 8.33325 43.7507C8.33325 37.9868 10.243 32.952 14.0624 28.6465C17.8819 24.3409 22.6041 21.8062 28.2291 21.0423C30.4513 17.084 33.4902 13.9757 37.3458 11.7173C41.2013 9.45899 45.4194 8.33121 49.9999 8.33399C56.2499 8.33399 61.6846 10.3312 66.3041 14.3257C70.9235 18.3201 73.718 23.302 74.6874 29.2715C79.4791 29.6882 83.5069 31.6673 86.7708 35.209C90.0346 38.7507 91.6666 42.9868 91.6666 47.9173C91.6666 53.1257 89.8444 57.5534 86.1999 61.2007C82.5555 64.8479 78.1277 66.6701 72.9166 66.6673H31.2499Z" fill="white"/>
</svg>
